PathFileType	4	(x/y/z)	S09_P20_T03
DataRate	CameraRate	NumFrames	NumMarkers	Units	OrigDataRate	OrigDataStartFrame	OrigNumFrames
240	240	5	51	mm	240	307	409
Frame#	Time	Sternum			R.Acromium			L.Acromium			Top.Head			R.ASIS			L.ASIS			R.PSIS			L.PSIS			R.Great.Tro			L.Great.Tro			R.Iliac.Crest			L.Iliac.Crest			V.Sacral			R.Thigh.Upper.Post			R.Thigh.Lower.Ant			R.Thigh.Lower.Post			R.Thigh.Upper.Ant			R.Knee.Lat			R.Knee.Med			R.Shank.Upper.Post			R.Shank.Lower.Ant			R.Shank.Lower.Post			R.Shank.Upper.Ant			R.Ankle.Lat			R.Ankle.Med			R.Heel.Upper			R.Heel.Med			R.Heel.Lat			R.Toe.Lat			R.Toe.Med			R.Toe.Tip			L.Thigh.Upper.Post			L.Thigh.Lower.Ant			L.Thigh.Lower.Post			L.Thigh.Upper.Ant			L.Knee.Lat			L.Knee.Med			L.Shank.Upper.Post			L.Shank.Lower.Ant			L.Shank.Lower.Post			L.Shank.Upper.Ant			L.Ankle.Lat			L.Ankle.Med			L.Heel.Upper			L.Heel.Med			L.Heel.Lat			L.Toe.Lat			L.Toe.Med			L.Toe.Tip			Cervical.Spine			Back			
		X1	Y1	Z1	X2	Y2	Z2	X3	Y3	Z3	X4	Y4	Z4	X5	Y5	Z5	X6	Y6	Z6	X7	Y7	Z7	X8	Y8	Z8	X9	Y9	Z9	X10	Y10	Z10	X11	Y11	Z11	X12	Y12	Z12	X13	Y13	Z13	X14	Y14	Z14	X15	Y15	Z15	X16	Y16	Z16	X17	Y17	Z17	X18	Y18	Z18	X19	Y19	Z19	X20	Y20	Z20	X21	Y21	Z21	X22	Y22	Z22	X23	Y23	Z23	X24	Y24	Z24	X25	Y25	Z25	X26	Y26	Z26	X27	Y27	Z27	X28	Y28	Z28	X29	Y29	Z29	X30	Y30	Z30	X31	Y31	Z31	X32	Y32	Z32	X33	Y33	Z33	X34	Y34	Z34	X35	Y35	Z35	X36	Y36	Z36	X37	Y37	Z37	X38	Y38	Z38	X39	Y39	Z39	X40	Y40	Z40	X41	Y41	Z41	X42	Y42	Z42	X43	Y43	Z43	X44	Y44	Z44	X45	Y45	Z45	X46	Y46	Z46	X47	Y47	Z47	X48	Y48	Z48	X49	Y49	Z49	X50	Y50	Z50	X51	Y51	Z51	

307	1.275	317.18	1180.8	297.31	185.86	1446.4	444.38	194.95	1447.2	134.17	203.89	1749.7	289.23	242.92	1025.2	399.55	250.6	1034.7	153.69	27.513	1045.5	316.53	36.321	1053.3	227.73	162.96	934.93	468.53	180.71	943.34	84.105	154.32	1098.6	442.7	150.2	1127.2	116.64	13.745	1013.7	267.13	238.91	699.34	464.65	340.34	621.82	444.13	262.21	608.96	445.67	311.06	706.6	461.97	330.05	533.91	436.98	345.89	521.92	315.77	179.45	425.04	428.25	199.5	335.8	422.81	134.09	364.62	413.4	237.95	397.51	437.07	44.729	205.82	388.07	93.803	192.68	313.43	-9.8976	216.94	320.91	-13.175	181.7	294.12	-31.375	193.73	355.49	80.339	101.4	439.62	140.68	71.649	350.25	179.87	67.642	401.77	136.06	681.39	137.44	224.27	590.66	141.28	156.91	593.48	158.4	204.84	674.57	115.55	215.02	509.48	155.35	233.91	528.43	286.05	165.74	375.77	149.8	228.81	286.48	165.89	165.61	299.43	159.54	228.26	363.95	157.29	185.75	101.92	190.73	203.38	100.42	282.26	116.33	70.154	246.48	130.52	47.283	279.93	117.11	40.478	219.73	288.77	41.616	160.2	328.55	48.537	268.15	377.41	64.812	207.1	110.71	1495.4	297.24	52.648	1234.1	275.74
308	1.2792	322.3	1181.6	297.22	190.9	1447	444.28	200.37	1448.2	134.13	209.3	1750.4	289.34	247.67	1026.3	399.35	255.55	1035.1	153.54	32.351	1046.5	316.06	41.329	1054.2	227.29	167.81	936.11	468.27	185.35	943.72	83.989	159.1	1099.6	442.28	155.46	1127.7	116.18	18.622	1014.7	266.71	246.01	701	464.61	348.03	624.33	443.67	269.98	610.78	445.68	318.16	708.86	461.61	338.4	536.26	436.65	354.12	524.32	315.55	189.44	424.39	428.09	211.3	335.58	422.96	145.35	363.02	413.4	248.48	398.11	437.06	59.322	202.34	388.49	108.73	189.98	313.91	4.3448	211.87	321.22	1.9095	176.35	294.73	-16.506	188.33	355.99	97.42	99.093	440.6	158.45	70.287	351.33	197.74	67.347	402.91	138.78	682.23	137.27	226.29	590.85	141.1	158.93	594.15	158.13	207.45	674.94	115.44	216.36	509.62	155.15	235.21	528.38	285.9	166.54	375.95	149.67	229.36	286.53	165.76	166.25	299.64	159.43	229.01	363.99	157.11	185.88	102.01	190.73	203.52	100.56	282.22	116.39	70.285	246.53	130.56	47.353	279.95	117.15	40.638	219.76	288.8	41.563	160.17	328.63	48.452	268.12	377.49	64.61	207.05	115.96	1496.2	297.12	57.827	1235	275.2
309	1.2833	327.41	1182.4	297.14	195.96	1447.6	444.19	205.79	1449.2	134.09	214.69	1751.1	289.48	252.42	1027.4	399.16	260.49	1035.4	153.4	37.183	1047.5	315.63	46.333	1055.1	226.87	172.68	937.25	468.05	190.02	944.07	83.869	163.85	1100.6	441.89	160.7	1128.2	115.74	23.499	1015.6	266.31	253	702.62	464.53	355.59	626.75	443.18	277.63	612.56	445.62	325.16	711.04	461.23	346.6	538.55	436.28	362.17	526.66	315.31	199.41	423.62	427.93	223.12	335.31	423.13	156.64	361.32	413.41	258.99	398.64	437.04	74.095	198.73	388.97	123.81	187.21	314.44	18.788	206.68	321.6	17.211	170.91	295.4	-1.4166	182.81	356.56	114.68	96.712	441.59	176.37	68.914	352.4	215.75	67.043	404.02	141.53	683.04	137.1	228.34	591.02	140.94	160.98	594.81	157.85	210.08	675.29	115.34	217.72	509.75	154.96	236.5	528.33	285.78	167.36	376.13	149.54	229.94	286.58	165.64	166.92	299.85	159.32	229.78	364.03	156.95	186.01	102.1	190.74	203.66	100.7	282.19	116.46	70.417	246.58	130.61	47.424	279.98	117.19	40.799	219.79	288.83	41.514	160.13	328.7	48.363	268.09	377.57	64.407	207.01	121.21	1496.9	297	63.01	1235.8	274.67
310	1.2875	332.5	1183.1	297.05	201.02	1448.1	444.09	211.23	1450.1	134.05	220.09	1751.7	289.62	257.18	1028.5	398.98	265.43	1035.7	153.26	42.01	1048.4	315.22	51.332	1055.9	226.48	177.58	938.37	467.86	194.72	944.38	83.744	168.6	1101.6	441.5	165.92	1128.6	115.32	28.377	1016.4	265.95	259.89	704.17	464.41	363.01	629.08	442.65	285.14	614.27	445.5	332.06	713.13	460.83	354.65	540.77	435.87	370.06	528.93	315.03	209.37	422.74	427.77	234.95	334.98	423.3	167.96	359.5	413.43	269.45	399.11	437.02	89.047	195.02	389.5	139.04	184.37	315.01	33.435	201.38	322.07	32.733	165.39	296.13	13.894	177.17	357.21	132.11	94.272	442.59	194.45	67.544	353.47	233.9	66.743	405.12	144.31	683.83	136.92	230.41	591.18	140.78	163.04	595.46	157.58	212.75	675.61	115.25	219.11	509.86	154.79	237.79	528.26	285.67	168.2	376.31	149.42	230.54	286.62	165.54	167.63	300.07	159.21	230.57	364.06	156.81	186.15	102.19	190.76	203.79	100.83	282.17	116.54	70.549	246.63	130.67	47.498	280	117.24	40.961	219.82	288.86	41.47	160.11	328.78	48.269	268.06	377.65	64.205	206.97	126.46	1497.5	296.88	68.195	1236.7	274.15
311	1.2917	337.57	1183.9	296.97	206.09	1448.6	443.99	216.66	1451	134.02	225.47	1752.3	289.79	261.94	1029.4	398.8	270.37	1035.9	153.12	46.834	1049.2	314.85	56.325	1056.7	226.12	182.52	939.45	467.71	199.44	944.65	83.614	173.34	1102.6	441.14	171.13	1129.1	114.92	33.257	1017.2	265.62	266.67	705.65	464.24	370.29	631.31	442.08	292.52	615.92	445.32	338.85	715.12	460.41	362.54	542.92	435.42	377.78	531.13	314.72	219.3	421.75	427.61	246.8	334.59	423.47	179.31	357.59	413.46	279.88	399.51	436.99	104.18	191.22	390.09	154.42	181.47	315.64	48.291	195.99	322.6	48.478	159.82	296.92	29.429	171.45	357.92	149.71	91.791	443.61	212.67	66.193	354.54	252.17	66.459	406.21	147.11	684.58	136.75	232.51	591.32	140.63	165.12	596.09	157.3	215.45	675.91	115.16	220.52	509.97	154.62	239.07	528.19	285.58	169.07	376.49	149.3	231.16	286.66	165.45	168.36	300.28	159.1	231.39	364.09	156.67	186.3	102.29	190.78	203.93	100.95	282.16	116.64	70.682	246.68	130.74	47.576	280.04	117.29	41.124	219.85	288.9	41.43	160.08	328.85	48.172	268.04	377.73	64.001	206.93	131.71	1498.2	296.76	73.383	1237.5	273.64
